HIERARCHY
ROOT hip
{
  OFFSET 0 0 0
  CHANNELS 6 Xposition Yposition Zposition Zrotation Yrotation Xrotation
  JOINT abdomen
  {
    OFFSET 0 20.6881 -0.73152
    CHANNELS 3 Zrotation Xrotation Yrotation
    JOINT chest
    {
      OFFSET 0 11.7043 -0.48768
      CHANNELS 3 Zrotation Xrotation Yrotation
      JOINT neck
      {
        OFFSET 0 22.1894 -2.19456
        CHANNELS 3 Zrotation Xrotation Yrotation
        JOINT head
        {
          OFFSET -0.24384 7.07133 1.2192
          CHANNELS 3 Zrotation Xrotation Yrotation
          JOINT leftEye
          {
            OFFSET 4.14528 8.04674 8.04672
            CHANNELS 3 Zrotation Xrotation Yrotation
            End Site
            {
              OFFSET 1 0 0
            }
          }
          JOINT rightEye
          {
            OFFSET -3.6576 8.04674 8.04672
            CHANNELS 3 Zrotation Xrotation Yrotation
            End Site
            {
              OFFSET 1 0 0
            }
          }
        }
      }
      JOINT rCollar
      {
        OFFSET -2.68224 19.2634 -4.8768
        CHANNELS 3 Zrotation Xrotation Yrotation
        JOINT rShldr
        {
          OFFSET -8.77824 -1.95073 1.46304
          CHANNELS 3 Zrotation Xrotation Yrotation
          JOINT rForeArm
          {
            OFFSET -28.1742 -1.7115 0.48768
            CHANNELS 3 Zrotation Xrotation Yrotation
            JOINT rHand
            {
              OFFSET -22.5879 0.773209 7.07136
              CHANNELS 3 Zrotation Xrotation Yrotation
              JOINT rThumb1
              {
                OFFSET -1.2192 -0.487915 3.41376
                CHANNELS 3 Zrotation Xrotation Yrotation
                JOINT rThumb2
                {
                  OFFSET -3.37035 -0.52449 3.41376
                  CHANNELS 3 Zrotation Xrotation Yrotation
                  End Site
                  {
                    OFFSET -1.78271 -1.18214 1.43049
                  }
                }
              }
              JOINT rIndex1
              {
                OFFSET -7.75947 0.938293 5.60832
                CHANNELS 3 Zrotation Xrotation Yrotation
                JOINT rIndex2
                {
                  OFFSET -2.54057 -0.884171 1.56538
                  CHANNELS 3 Zrotation Xrotation Yrotation
                  End Site
                  {
                    OFFSET -1.62519 -0.234802 1.16502
                  }
                }
              }
              JOINT rMid1
              {
                OFFSET -8.24714 1.18213 3.41376
                CHANNELS 3 Zrotation Xrotation Yrotation
                JOINT rMid2
                {
                  OFFSET -3.10165 -0.590103 1.0647
                  CHANNELS 3 Zrotation Xrotation Yrotation
                  End Site
                  {
                    OFFSET -2.48547 -0.328903 0.83742
                  }
                }
              }
              JOINT rRing1
              {
                OFFSET -8.82822 0.546677 1.51678
                CHANNELS 3 Zrotation Xrotation Yrotation
                JOINT rRing2
                {
                  OFFSET -2.60934 -0.819778 -0.0198488
                  CHANNELS 3 Zrotation Xrotation Yrotation
                  End Site
                  {
                    OFFSET -2.33842 -0.294052 0.168128
                  }
                }
              }
              JOINT rPinky1
              {
                OFFSET -8.27202 -0.0477905 -0.4584
                CHANNELS 3 Zrotation Xrotation Yrotation
                JOINT rPinky2
                {
                  OFFSET -1.82734 -0.647385 -0.700984
                  CHANNELS 3 Zrotation Xrotation Yrotation
                  End Site
                  {
                    OFFSET -1.69225 -0.51767 -0.607171
                  }
                }
              }
            }
          }
        }
      }
      JOINT lCollar
      {
        OFFSET 2.68224 19.2634 -4.8768
        CHANNELS 3 Zrotation Xrotation Yrotation
        JOINT lShldr
        {
          OFFSET 8.77824 -1.95073 1.46304
          CHANNELS 3 Zrotation Xrotation Yrotation
          JOINT lForeArm
          {
            OFFSET 28.1742 -1.7115 0.48768
            CHANNELS 3 Zrotation Xrotation Yrotation
            JOINT lHand
            {
              OFFSET 22.5879 0.773209 7.07136
              CHANNELS 3 Zrotation Xrotation Yrotation
              JOINT lThumb1
              {
                OFFSET 1.2192 -0.487915 3.41376
                CHANNELS 3 Zrotation Xrotation Yrotation
                JOINT lThumb2
                {
                  OFFSET 3.37035 -0.52449 3.41376
                  CHANNELS 3 Zrotation Xrotation Yrotation
                  End Site
                  {
                    OFFSET 1.78271 -1.18214 1.43049
                  }
                }
              }
              JOINT lIndex1
              {
                OFFSET 7.75947 0.938293 5.60832
                CHANNELS 3 Zrotation Xrotation Yrotation
                JOINT lIndex2
                {
                  OFFSET 2.54057 -0.884171 1.56538
                  CHANNELS 3 Zrotation Xrotation Yrotation
                  End Site
                  {
                    OFFSET 1.62519 -0.234802 1.16502
                  }
                }
              }
              JOINT lMid1
              {
                OFFSET 8.24714 1.18213 3.41376
                CHANNELS 3 Zrotation Xrotation Yrotation
                JOINT lMid2
                {
                  OFFSET 3.10165 -0.590103 1.0647
                  CHANNELS 3 Zrotation Xrotation Yrotation
                  End Site
                  {
                    OFFSET 2.48547 -0.328903 0.83742
                  }
                }
              }
              JOINT lRing1
              {
                OFFSET 8.82822 0.546677 1.51678
                CHANNELS 3 Zrotation Xrotation Yrotation
                JOINT lRing2
                {
                  OFFSET 2.60934 -0.819778 -0.0198488
                  CHANNELS 3 Zrotation Xrotation Yrotation
                  End Site
                  {
                    OFFSET 2.33842 -0.294052 0.168128
                  }
                }
              }
              JOINT lPinky1
              {
                OFFSET 8.27202 -0.0477905 -0.4584
                CHANNELS 3 Zrotation Xrotation Yrotation
                JOINT lPinky2
                {
                  OFFSET 1.82734 -0.647385 -0.700984
                  CHANNELS 3 Zrotation Xrotation Yrotation
                  End Site
                  {
                    OFFSET 1.69225 -0.51767 -0.607171
                  }
                }
              }
            }
          }
        }
      }
    }
  }
  JOINT rButtock
  {
    OFFSET -8.77824 4.35084 1.2192
    CHANNELS 3 Zrotation Xrotation Yrotation
    JOINT rThigh
    {
      OFFSET 0 -1.70687 -2.19456
      CHANNELS 3 Zrotation Xrotation Yrotation
      JOINT rShin
      {
        OFFSET 0 -36.8199 0.73152
        CHANNELS 3 Zrotation Xrotation Yrotation
        JOINT rFoot
        {
          OFFSET 0.73152 -45.1104 -5.12064
          CHANNELS 3 Zrotation Xrotation Yrotation
          End Site
          {
            OFFSET -1.1221 -3.69964 12.103
          }
        }
      }
    }
  }
  JOINT lButtock
  {
    OFFSET 8.77824 4.35084 1.2192
    CHANNELS 3 Zrotation Xrotation Yrotation
    JOINT lThigh
    {
      OFFSET 0 -1.70687 -2.19456
      CHANNELS 3 Zrotation Xrotation Yrotation
      JOINT lShin
      {
        OFFSET 0 -36.8199 0.73152
        CHANNELS 3 Zrotation Xrotation Yrotation
        JOINT lFoot
        {
          OFFSET -0.73152 -45.1104 -5.12064
          CHANNELS 3 Zrotation Xrotation Yrotation
          End Site
          {
            OFFSET 1.1221 -3.69964 12.103
          }
        }
      }
    }
  }
}
MOTION
Frames:	7
Frame Time:	0.03333
0.1402 64.3024 -28.6913 -32.981496 16.268506 -26.470887 -6.841637 23.056273 4.462341 -2.082497 -10.444704 1.533846 -1.689887 14.081151 3.834476 -0.154527 -33.114877 9.189772 0.010389 -0.114762 -0.13362 0.203135 -0.09248 0.155116 -0.153009 -0.041558 -0.019396 16.231582 62.783982 33.64555 -27.31956 -29.192729 67.553564 0.298761 14.9205 1.802269 0.145596 0.151036 -0.02585 -0.012833 0.023548 -0.056459 -0.022075 0.07718 -0.032396 7.89111 5.458788 0.425558 0.160459 -0.044475 0.096246 3.048596 1.053181 0.286722 -0.033388 -0.166656 -0.270067 10.313232 0.592135 0.201842 -0.058716 -0.098265 -0.225217 2.178187 -0.870832 -0.179916 0.074576 0.065748 0.050437 -39.717405 16.696282 -33.455081 28.367077 -34.649496 -73.018848 0.479319 -21.296885 2.873043 -0.025326 -0.146954 0.035799 0.067157 -0.102862 0.18131 0.056251 -0.109022 -0.118256 -7.840969 5.375975 -0.318304 -0.060325 0.25622 0.029182 -3.077309 0.831489 -0.050571 0.338271 -0.124672 -0.019672 -10.352355 0.893269 0.111467 0.024174 0.183512 0.167883 -2.099763 -0.646534 0.331486 -0.095684 0.047297 0.116359 -10.335392 -40.773385 -13.440497 -2.966259 68.382537 3.270119 -4.469483 -7.242955 -12.849504 -0.014077 -0.165358 -0.093687 24.105087 -47.846148 24.480541 4.054993 80.508383 -4.115002 3.583276 -2.093135 11.269357
0.1889 64.2922 -28.5624 -36.506634 3.771226 -30.784607 -8.774226 22.791529 4.951892 -1.743345 -10.863219 1.706549 -1.737926 13.630332 4.017764 -1.007166 -32.003371 9.126878 1.3e-05 -0.120263 -0.086433 0.164431 -0.109452 0.24365 -0.143555 -0.043657 -0.053753 1.264331 65.015156 49.626675 -26.694771 -27.557215 65.390455 0.535011 15.927352 1.869006 0.172806 0.213893 -0.01719 0.050044 0.012851 -0.095656 -0.010545 0.076077 -0.057819 7.862609 5.511596 0.442608 0.195103 -0.161494 0.129367 3.054466 1.120511 0.230235 -0.021579 -0.139082 -0.254566 10.302576 0.573699 0.196971 -0.053163 -0.137674 -0.196358 2.132897 -0.811532 -0.242964 0.092357 0.071466 0.100318 -39.590825 14.592145 -29.30838 26.999814 -27.060378 -60.863567 0.191378 -15.213611 2.32105 -0.034012 -0.1882 0.039904 0.02047 -0.11219 0.211006 0.127503 -0.071773 -0.079051 -7.823362 5.331546 -0.367666 -0.072529 0.258269 0.012519 -3.060511 0.822619 -0.01168 0.311742 -0.145603 -0.02484 -10.324123 0.905188 0.133624 0.030108 0.150459 0.23338 -2.10956 -0.690025 0.320502 -0.097638 0.0872 0.120697 -11.471247 -37.969768 -11.29555 -3.065743 66.939977 3.196532 -3.6421 -7.654836 -11.202557 0.03619 -0.121874 -0.071715 31.049052 -43.997476 25.004942 2.746447 75.703206 -2.585951 2.934731 -2.343373 15.534283
0.4824 64.8624 -27.9891 -36.416732 -8.882503 -32.654663 -11.090459 22.107416 5.524593 -1.40235 -11.36955 1.868628 -1.724476 13.129026 4.430279 -2.450995 -30.742885 9.17168 -0.006368 -0.102391 -0.020354 0.074537 -0.14291 0.334394 -0.13027 -0.032409 -0.086185 -12.051865 67.706323 64.236994 -26.262575 -26.83243 64.35873 0.886522 15.695153 1.571426 0.183835 0.241196 0.020735 0.144064 0.003484 -0.107629 0.017366 0.083256 -0.081736 7.827037 5.54248 0.444529 0.225444 -0.280683 0.1556 3.04987 1.151975 0.123691 -0.017455 -0.105944 -0.190372 10.296019 0.588771 0.125961 -0.027011 -0.156001 -0.15116 2.092756 -0.716451 -0.281178 0.104624 0.069274 0.147772 -42.786565 12.566158 -22.173673 23.390909 -18.990253 -47.796605 -0.152286 -7.225768 1.611957 -0.029801 -0.203189 0.032185 -0.035626 -0.129376 0.222985 0.192465 -0.04359 -0.066338 -7.823362 5.307928 -0.440779 -0.085021 0.22185 -0.019865 -3.035239 0.820968 0.012003 0.254694 -0.143799 2.2e-05 -10.309686 0.936674 0.142821 0.085368 0.067649 0.270359 -2.125369 -0.76126 0.313178 -0.081867 0.129613 0.146775 -16.024958 -35.565978 -10.941757 -3.251236 65.256792 3.084198 -2.182164 -7.887696 -8.873549 0.0676 -0.062983 -0.03239 36.355613 -36.820592 22.053419 1.320869 64.216273 -0.970417 1.884573 -1.392574 22.158156
0.9615 65.8945 -27.208900000000003 -23.333793 -22.117183 -23.075795 -13.286518 21.224246 6.088808 -1.028654 -11.612348 1.94485 -1.570114 12.689299 4.867934 -4.358689 -29.461643 9.048722 -0.012172 -0.070725 0.058689 -0.050663 -0.173504 0.415349 -0.105533 -0.008342 -0.109108 -21.932435 72.424986 75.153717 -26.299608 -27.440291 65.10755 1.317761 12.802946 0.632716 0.198577 0.220168 0.109704 0.251785 -0.000425 -0.077308 0.033493 0.091106 -0.105746 7.800303 5.54005 0.42405 0.241674 -0.367497 0.146292 3.023191 1.131886 -0.017757 -0.022104 -0.091764 -0.087699 10.305269 0.641504 -0.016737 0.026074 -0.135596 -0.104063 2.060525 -0.611907 -0.289345 0.111861 0.045833 0.142929 -50.018018 9.754842 -12.708371 18.777759 -12.625907 -36.045936 -0.641705 3.102509 0.693987 -0.018119 -0.175253 0.014419 -0.095763 -0.163748 0.197426 0.233916 -0.05525 -0.101694 -7.861545 5.308706 -0.512836 -0.10407 0.147106 -0.0556 -3.032529 0.818966 -0.007907 0.170352 -0.113896 0.044223 -10.323713 0.977742 0.124134 0.183931 -0.042592 0.258828 -2.158209 -0.831249 0.311221 -0.054338 0.153116 0.181546 -22.345518 -33.035191 -10.287779 -2.94104 62.035914 2.346908 -0.564732 -7.893181 -7.503635 0.062795 -0.006085 0.021481 40.279995 -26.747618 16.657412 0.606878 47.815972 -0.227516 0.475574 -0.046337 30.1686
1.4768999999999999 67.3022 -26.565 9.392888 -27.530239 5.889355 -14.420209 20.451883 6.209085 -0.678715 -11.427253 1.760398 -1.273499 12.365946 5.164671 -6.356883 -27.883307 8.513292 -0.031345 -0.053159 0.128784 -0.166738 -0.163559 0.46693 -0.074494 0.020886 -0.104745 -21.708629 79.948953 74.7844 -26.938208 -29.512188 67.962108 1.592008 6.472126 -0.799996 0.217413 0.166535 0.226911 0.336165 -0.003178 -0.006611 0.015841 0.089441 -0.137249 7.794102 5.516363 0.383515 0.220434 -0.403261 0.08757 2.984016 1.081056 -0.136609 -0.027859 -0.111428 0.007845 10.316968 0.704961 -0.175062 0.072838 -0.065287 -0.084717 2.067275 -0.558576 -0.281917 0.081116 -0.001053 0.073099 -58.666287 5.75453 -5.019555 15.210594 -8.939795 -27.911822 -1.361558 15.216067 -0.368149 -0.01352 -0.11221 -0.005269 -0.142711 -0.230243 0.1359 0.230819 -0.126486 -0.160542 -7.925818 5.33478 -0.55824 -0.115377 0.065621 -0.060177 -3.051379 0.825117 -0.077246 0.087351 -0.064858 0.074091 -10.371446 1.009015 0.080821 0.270522 -0.123632 0.206225 -2.180928 -0.87443 0.317564 -0.022336 0.140948 0.188257 -28.167567 -29.59703 -7.238635 -1.956411 56.24741 0.908344 0.500876 -8.857758 -8.784272 0.024419 0.022752 0.070469 44.499996 -19.708513 13.798079 0.467246 34.988922 -0.124414 -0.671572 0.363097 31.999147
1.8336000000000001 68.7617 -26.273999999999997 37.543099 -18.107841 32.912822 -13.515676 20.173484 5.594949 -0.372003 -11.067833 1.321427 -0.849816 12.199579 5.076197 -7.816793 -25.631673 7.532414 -0.058579 -0.056173 0.175663 -0.234751 -0.090514 0.469675 -0.056641 0.044714 -0.064768 33.115587 84.256087 18.90253 -27.771914 -32.333927 71.988129 1.389794 -0.772855 -1.923271 0.229182 0.107724 0.309456 0.368569 -0.008472 0.064869 -0.015491 0.065146 -0.174195 7.789252 5.498166 0.34866 0.163026 -0.386015 0.006846 2.951164 1.029666 -0.181822 -0.022922 -0.13835 0.041763 10.32187 0.753301 -0.266259 0.07303 0.022932 -0.105495 2.128771 -0.585298 -0.280076 0.006419 -0.052765 -0.020577 -64.674042 3.505775 -2.812472 14.223924 -7.845143 -25.385287 -2.056358 22.718964 -1.030895 -0.029399 -0.049378 -0.009506 -0.164226 -0.305307 0.081533 0.18854 -0.22226 -0.202871 -7.968561 5.371851 -0.561145 -0.111822 -0.006351 -0.016808 -3.066088 0.847859 -0.17495 0.039735 -0.017661 0.070209 -10.427204 1.005304 0.044979 0.298985 -0.145255 0.146984 -2.161411 -0.881399 0.33263 0.013354 0.0965 0.149527 -31.611282 -25.697598 -2.15659 -0.873143 49.630983 -0.438726 0.205632 -11.768335 -12.849654 -0.025068 0.013433 0.102397 50.099875 -22.56825 17.883982 0.655852 36.574861 -0.331688 -0.658161 -1.355059 24.168429
1.9382 69.9534 -26.3106 51.071697 -9.429477 47.278893 -10.911391 20.048129 4.991965 -0.148799 -10.659525 1.01423 -0.477516 12.230714 4.395354 -8.049049 -23.288855 6.185749 -0.066115 -0.06218 0.197066 -0.237943 0.01652 0.425589 -0.047147 0.059785 -0.017325 61.771795 78.179369 -9.593402 -28.324619 -34.921256 75.712028 0.786971 -5.106438 -2.172964 0.227426 0.062014 0.315504 0.347532 -0.011031 0.092396 -0.036148 0.020956 -0.199032 7.752817 5.506438 0.33663 0.094268 -0.341689 -0.062689 2.915517 0.988375 -0.171792 -0.008975 -0.140058 0.009574 10.319535 0.786908 -0.265855 0.034838 0.073105 -0.141628 2.210079 -0.646564 -0.283996 -0.07396 -0.088362 -0.09191 -66.590184 6.314755 -4.629573 15.62543 -8.760188 -27.743875 -2.369628 18.893594 -0.635437 -0.057933 -0.010484 0.013743 -0.171032 -0.340549 0.07132 0.141588 -0.273087 -0.221131 -7.964654 5.393673 -0.528674 -0.113908 -0.065466 0.050124 -3.053325 0.868684 -0.253248 0.038291 0.000922 0.045813 -10.458994 0.966092 0.036058 0.275874 -0.117088 0.105786 -2.107254 -0.862997 0.349712 0.043137 0.03683 0.088001 -32.286409 -23.343867 1.863511 -0.117314 45.947137 -1.126721 -1.332131 -15.116279 -17.49792 -0.061276 -0.021332 0.11308 58.184207 -32.464273 28.693418 0.866604 52.064017 -0.794766 -0.086577 -4.790759 14.761705
